#!OML:ASF F:\VICON\USERDATA\INSTALL\rory3\rory3.ASF
:FULLY-SPECIFIED
:DEGREES
453
root 1.83512 17.7791 6.07677 -362.893 -74.6443 1.70855
lowerback 24.4681 0.516728 -1.22028
upperback 4.52486 0.467901 4.36996
thorax -8.6707 0.172504 5.43253
lowerneck -11.1058 2.07156 -0.562076
upperneck 13.3612 3.93556 -7.50355
head 6.0303 1.25659 -1.95595
rclavicle 1.55052e-014 -1.43125e-014
rhumerus -18.4204 -8.31531 -62.9137
rradius 97.6622
rwrist 10.2048
rhand -0.561839 4.45327
rfingers 7.12502
rthumb 25.0521 -23.9237
lclavicle 1.55052e-014 -1.43125e-014
lhumerus -44.0638 8.45005 78.7232
lradius 47.4093
lwrist 13.2265
lhand -12.9789 50.4905
lfingers 7.12502
lthumb 13.1135 80.0582
rfemur -18.9827 -2.64612 25.5762
rtibia 41.7095
rfoot -20.3475 -17.8407
rtoes 26.8065
lfemur -21.4939 6.93778 -20.0909
ltibia 55.379
lfoot -18.1548 10.4372
ltoes -5.76541
454
root 1.85681 17.7747 6.05973 -356.344 -73.7621 -5.42224
lowerback 24.9537 0.182498 0.350485
upperback 4.47238 0.499856 5.15314
thorax -8.97954 0.148405 5.40774
lowerneck -11.1653 2.21797 -1.1405
upperneck 13.7172 4.25338 -7.50132
head 6.15599 1.36261 -1.83397
rclavicle -1.98785e-014 -5.24792e-014
rhumerus -17.9491 -5.13257 -63.4286
rradius 98.075
rwrist 12.2085
rhand -1.13059 4.54172
rfingers 7.12502
rthumb 24.507 -23.9102
lclavicle -1.98785e-014 -5.24792e-014
lhumerus -44.2582 8.94512 79.1531
lradius 48.1882
lwrist 13.8268
lhand -13.2938 50.4642
lfingers 7.12502
lthumb 12.81 80.0512
rfemur -18.6924 -2.22759 27.7528
rtibia 41.8123
rfoot -20.6034 -18.5869
rtoes 27.493
lfemur -21.1942 7.56219 -17.7104
ltibia 55.6585
lfoot -17.6826 10.5968
ltoes -6.79681
455
root 1.85525 17.7874 6.02348 -362.825 -72.6527 1.78731
lowerback 24.1737 0.600053 -1.40572
upperback 4.42353 0.558595 4.46913
thorax -8.64264 0.231199 5.6185
lowerneck -11.0394 1.91135 -1.37224
upperneck 13.6633 3.80427 -7.05344
head 6.08744 1.17643 -1.69316
rclavicle 3.93594e-014 1.11319e-014
rhumerus -18.1081 -3.55189 -63.968
rradius 98.3695
rwrist 14.2963
rhand -2.25487 4.32416
rfingers 7.12502
rthumb 23.4289 -24.2695
lclavicle 3.93594e-014 1.11319e-014
lhumerus -43.6043 7.83024 79.5671
lradius 48.6256
lwrist 13.8336
lhand -12.9608 50.0351
lfingers 7.12502
lthumb 13.131 79.6017
rfemur -19.3704 -1.89605 25.4814
rtibia 42.1865
rfoot -20.9625 -18.9966
rtoes 28.1007
lfemur -21.2568 7.71948 -20.0308
ltibia 55.418
lfoot -17.1334 11.4584
ltoes -8.44663
456
root 1.85611 17.7832 5.99187 -363.717 -71.3446 2.48148
lowerback 24.2174 0.736509 -1.56321
upperback 4.4754 0.692072 4.3712
thorax -8.62229 0.299066 5.55769
lowerneck -10.7535 1.75261 -1.56373
upperneck 13.5187 3.56191 -6.78421
head 5.9762 1.083 -1.59825
rclavicle -2.82274e-014 -9.54166e-015
rhumerus -18.2246 -1.779 -64.4757
rradius 98.4246
rwrist 16.7951
rhand -3.32902 4.16784
rfingers 7.12502
rthumb 22.3982 -24.5536
lclavicle -2.82274e-014 -9.54166e-015
lhumerus -43.1837 7.10505 80.0566
lradius 49.1935
lwrist 13.6798
lhand -12.7533 49.8072
lfingers 7.12502
lthumb 13.331 79.3608
rfemur -19.139 -2.30375 25.1685
rtibia 42.2827
rfoot -21.3038 -19.1612
rtoes 29.9381
lfemur -20.8181 8.08806 -20.1498
ltibia 55.4885
lfoot -16.954 12.0586
ltoes -9.66948
457
root 1.86605 17.7716 5.96705 -362.327 -69.9897 0.757721
lowerback 24.4861 0.632664 -0.97473
upperback 4.44277 0.720859 4.48564
thorax -8.79666 0.301811 5.34093
lowerneck -10.5382 1.76237 -1.55375
upperneck 13.5384 3.56064 -6.74354
head 5.94436 1.09024 -1.58843
rclavicle 5.1684e-015 6.36111e-015
rhumerus -18.4158 0.512858 -65.1483
rradius 98.3888
rwrist 19.2971
rhand -4.36481 4.11528
rfingers 7.12502
rthumb 21.4036 -24.7225
lclavicle 5.1684e-015 6.36111e-015
lhumerus -43.0822 6.52375 80.4589
lradius 50.0793
lwrist 13.9155
lhand -13.3914 49.4517
lfingers 7.12502
lthumb 12.7159 79.0445
rfemur -18.9579 -2.94038 25.786
rtibia 42.4351
rfoot -20.9228 -19.8543
rtoes 28.1825
lfemur -20.5224 8.44391 -19.3471
ltibia 55.5427
lfoot -16.8643 12.3497
ltoes -9.76212
458
root 1.87563 17.7673 5.94662 -361.92 -68.6732 0.263641
lowerback 24.7086 0.573036 -0.902934
upperback 4.27827 0.690246 4.58124
thorax -9.0942 0.298995 5.42637
lowerneck -10.397 1.8005 -1.60043
upperneck 13.7206 3.61344 -6.66202
head 5.97648 1.11608 -1.55202
rclavicle 3.26007e-014 -1.27222e-014
rhumerus -18.7097 3.17238 -65.7129
rradius 98.1848
rwrist 21.3736
rhand -5.32128 4.01073
rfingers 7.12502
rthumb 20.4847 -24.9286
lclavicle 3.26007e-014 -1.27222e-014
lhumerus -43.2142 6.36883 80.7032
lradius 51.0419
lwrist 13.7899
lhand -12.8711 49.7259
lfingers 7.12502
lthumb 13.2174 79.2869
rfemur -18.8958 -3.4811 25.9807
rtibia 42.3854
rfoot -19.9023 -20.8097
rtoes 24.5201
lfemur -20.4883 8.70771 -19.0463
ltibia 55.723
lfoot -16.8313 12.7888
ltoes -12.5089
459
root 1.88359 17.7632 5.92778 -360.814 -67.3775 -1.01484
lowerback 25.1603 0.506116 -0.760625
upperback 3.97283 0.708231 4.97112
thorax -9.6798 0.329418 5.80213
lowerneck -10.2893 1.85851 -1.97581
upperneck 14.1833 3.76758 -6.62997
head 6.1027 1.1559 -1.46984
rclavicle 5.08889e-014 3.49861e-014
rhumerus -19.2871 6.29915 -65.9333
rradius 97.929
rwrist 23.2853
rhand -6.12365 3.57213
rfingers 7.12502
rthumb 19.7135 -25.4483
lclavicle 5.08889e-014 3.49861e-014
lhumerus -43.625 6.4333 81.1978
lradius 51.8783
lwrist 13.605
lhand -12.3864 49.9395
lfingers 7.12502
lthumb 13.6846 79.4696
rfemur -18.7995 -3.79877 26.524
rtibia 42.3318
rfoot -19.1973 -21.733
rtoes 22.5519
lfemur -20.4008 8.80244 -18.4187
ltibia 55.9105
lfoot -16.802 13.4127
ltoes -14.4685
460
root 1.8914 17.7602 5.90645 -360.453 -65.9578 -1.45996
lowerback 24.9587 0.546892 0.040913
upperback 4.04855 0.950843 4.76891
thorax -9.49802 0.411184 5.01485
lowerneck -10.4332 1.58437 -1.78733
upperneck 14.3295 3.35877 -6.45332
head 6.16167 0.977642 -1.47819
rclavicle 6.08281e-014 -1.74931e-014
rhumerus -20.1583 7.75843 -66.6446
rradius 97.659
rwrist 25.3223
rhand -6.8717 2.97987
rfingers 7.12502
rthumb 18.9942 -26.1127
lclavicle 6.08281e-014 -1.74931e-014
lhumerus -42.9758 5.18847 81.6355
lradius 52.4271
lwrist 13.6193
lhand -12.5208 49.6855
lfingers 7.12502
lthumb 13.5551 79.2243
rfemur -18.8386 -4.0788 26.7027
rtibia 42.4479
rfoot -19.8694 -22.0128
rtoes 23.91
lfemur -20.3177 8.98603 -18.0686
ltibia 55.91
lfoot -16.8157 13.6034
ltoes -11.0344
461
root 1.90113 17.7518 5.88457 -360.776 -64.7356 -1.11906
lowerback 24.8195 0.738382 0.279296
upperback 4.09879 1.24943 4.62196
thorax -9.38617 0.543187 4.60736
lowerneck -10.5245 1.36015 -1.651
upperneck 14.4358 3.0489 -6.47683
head 6.20489 0.829979 -1.53411
rclavicle -3.73715e-014 -1.11319e-014
rhumerus -20.611 9.25697 -67.4563
rradius 96.6164
rwrist 27.1111
rhand -7.69016 2.59902
rfingers 7.12502
rthumb 18.2069 -26.5689
lclavicle -3.73715e-014 -1.11319e-014
lhumerus -42.4897 4.03893 82.3256
lradius 53.1198
lwrist 13.9317
lhand -12.3635 49.9381
lfingers 7.12502
lthumb 13.7067 79.4667
rfemur -18.9669 -4.05809 26.4433
rtibia 42.7008
rfoot -21.364 -21.6409
rtoes 28.218
lfemur -20.2522 9.54427 -18.0673
ltibia 55.802
lfoot -17.2152 13.5086
ltoes -6.30894
462
root 1.91125 17.7407 5.86713 -360.984 -63.5527 -0.932458
lowerback 25.005 0.857128 0.187509
upperback 3.98749 1.40859 4.71817
thorax -9.6264 0.630583 4.72282
lowerneck -10.4266 1.31267 -1.93957
upperneck 14.513 3.02233 -6.41004
head 6.2077 0.805697 -1.4685
rclavicle 3.18055e-015 -3.49861e-014
rhumerus -20.7992 11.4419 -68.2246
rradius 94.9014
rwrist 28.5867
rhand -8.80368 2.4321
rfingers 7.12502
rthumb 17.1354 -26.8323
lclavicle 3.18055e-015 -3.49861e-014
lhumerus -42.4313 3.46979 83.0253
lradius 53.8421
lwrist 14.3111
lhand -12.0297 50.0213
lfingers 7.12502
lthumb 14.0284 79.5279
rfemur -19.0817 -3.95527 26.2743
rtibia 43.0461
rfoot -22.025 -21.947
rtoes 29.2898
lfemur -20.1085 10.0701 -18.0625
ltibia 55.5966
lfoot -17.3904 13.6559
ltoes -9.87514
